<svg width="2537" height="2576" viewBox="0 0 2537 2576" fill="none" xmlns="http://www.w3.org/2000/svg">
<g opacity="0.4">
<ellipse cx="210.244" cy="1397.11" rx="65.0447" ry="66.3474" transform="rotate(-48.3048 210.244 1397.11)" fill="#5FC7FF" fill-opacity="0.12"/>
<ellipse cx="391.826" cy="1557.83" rx="78.2085" ry="79.7749" transform="rotate(-48.3048 391.826 1557.83)" fill="#5FC7FF" fill-opacity="0.12"/>
<ellipse cx="798.559" cy="1540.61" rx="78.2085" ry="79.7749" transform="rotate(-48.3048 798.559 1540.61)" fill="#5FC7FF" fill-opacity="0.12"/>
<ellipse cx="1222.8" cy="1503.72" rx="78.2085" ry="79.7749" transform="rotate(-48.3048 1222.8 1503.72)" fill="#5FC7FF" fill-opacity="0.12"/>
<ellipse cx="1626.57" cy="1475.55" rx="87.5006" ry="89.2531" transform="rotate(-48.3048 1626.57 1475.55)" fill="#5FC7FF" fill-opacity="0.12"/>
<ellipse cx="1871.75" cy="1200.34" rx="87.5006" ry="89.2531" transform="rotate(-48.3048 1871.75 1200.34)" fill="#5FC7FF" fill-opacity="0.12"/>
<ellipse cx="762.674" cy="1141.54" rx="78.2085" ry="79.7749" transform="rotate(-48.3048 762.674 1141.54)" fill="#5FC7FF" fill-opacity="0.12"/>
<ellipse cx="1174.56" cy="1118.53" rx="78.2085" ry="79.7749" transform="rotate(-48.3048 1174.56 1118.53)" fill="#5FC7FF" fill-opacity="0.12"/>
<ellipse cx="1609.1" cy="1070.08" rx="78.2085" ry="79.7749" transform="rotate(-48.3048 1609.1 1070.08)" fill="#5FC7FF" fill-opacity="0.12"/>
<ellipse cx="395.672" cy="1188.97" rx="65.0447" ry="66.3474" transform="rotate(-48.3048 395.672 1188.97)" fill="#5FC7FF" fill-opacity="0.12"/>
<ellipse cx="576.143" cy="1349.72" rx="96.0184" ry="97.9414" transform="rotate(-48.3048 576.143 1349.72)" fill="#5FC7FF" fill-opacity="0.12"/>
<ellipse cx="992.145" cy="1322.09" rx="96.0184" ry="97.9414" transform="rotate(-48.3048 992.145 1322.09)" fill="#5FC7FF" fill-opacity="0.12"/>
<ellipse cx="1415.36" cy="1286.37" rx="96.0184" ry="97.9414" transform="rotate(-48.3048 1415.36 1286.37)" fill="#5FC7FF" fill-opacity="0.12"/>
<ellipse cx="69.045" cy="1554.44" rx="30.1993" ry="30.8042" transform="rotate(-48.3048 69.045 1554.44)" fill="#5FC7FF" fill-opacity="0.12"/>
<ellipse cx="250.692" cy="1716.26" rx="30.1993" ry="30.8042" transform="rotate(-48.3048 250.692 1716.26)" fill="#5FC7FF" fill-opacity="0.12"/>
<ellipse cx="610.042" cy="1752.23" rx="30.1993" ry="30.8042" transform="rotate(-48.3048 610.042 1752.23)" fill="#5FC7FF" fill-opacity="0.12"/>
<ellipse cx="828.257" cy="1946.6" rx="30.1993" ry="30.8042" transform="rotate(-48.3048 828.257 1946.6)" fill="#5FC7FF" fill-opacity="0.12"/>
<ellipse cx="1033.26" cy="1716.49" rx="30.1993" ry="30.8042" transform="rotate(-48.3048 1033.26 1716.49)" fill="#5FC7FF" fill-opacity="0.12"/>
<ellipse cx="1426.86" cy="1685.49" rx="30.1993" ry="30.8042" transform="rotate(-48.3048 1426.86 1685.49)" fill="#5FC7FF" fill-opacity="0.12"/>
<ellipse cx="1797.45" cy="1609.1" rx="30.1993" ry="30.8042" transform="rotate(-48.3048 1797.45 1609.1)" fill="#5FC7FF" fill-opacity="0.12"/>
<ellipse cx="2033.35" cy="1344.28" rx="30.1993" ry="30.8042" transform="rotate(-48.3048 2033.35 1344.28)" fill="#5FC7FF" fill-opacity="0.12"/>
<ellipse cx="2146.51" cy="1444.06" rx="23.2303" ry="23.6955" transform="rotate(-48.3048 2146.51 1444.06)" fill="#5FC7FF" fill-opacity="0.12"/>
<ellipse cx="2353.56" cy="1211.62" rx="23.2303" ry="23.6955" transform="rotate(-48.3048 2353.56 1211.62)" fill="#5FC7FF" fill-opacity="0.12"/>
<ellipse cx="2502.94" cy="1043.95" rx="23.2303" ry="23.6955" transform="rotate(-48.3048 2502.94 1043.95)" fill="#5FC7FF" fill-opacity="0.12"/>
<ellipse cx="2240.4" cy="1111.86" rx="30.1993" ry="30.8042" transform="rotate(-48.3048 2240.4 1111.86)" fill="#5FC7FF" fill-opacity="0.12"/>
<ellipse cx="2389.77" cy="944.177" rx="11.6151" ry="11.8478" transform="rotate(-48.3048 2389.77 944.177)" fill="#5FC7FF" fill-opacity="0.12"/>
<ellipse cx="2071.73" cy="961.596" rx="30.1993" ry="30.8042" transform="rotate(-48.3048 2071.73 961.596)" fill="#5FC7FF" fill-opacity="0.12"/>
<ellipse cx="940.887" cy="941.471" rx="30.1993" ry="30.8042" transform="rotate(-48.3048 940.887 941.471)" fill="#5FC7FF" fill-opacity="0.12"/>
<ellipse cx="1338.35" cy="934.643" rx="30.1993" ry="30.8042" transform="rotate(-48.3048 1338.35 934.643)" fill="#5FC7FF" fill-opacity="0.12"/>
<ellipse cx="1733.75" cy="930.147" rx="30.1993" ry="30.8042" transform="rotate(-48.3048 1733.75 930.147)" fill="#5FC7FF" fill-opacity="0.12"/>
<ellipse cx="581.022" cy="979.714" rx="30.1993" ry="30.8042" transform="rotate(-48.3048 581.022 979.714)" fill="#5FC7FF" fill-opacity="0.12"/>
</g>
</svg>
